<svg width="49" height="48" viewBox="0 0 49 48" fill="none" xmlns="http://www.w3.org/2000/svg">
<g clip-path="url(#clip0_4_143)">
<path fill-rule="evenodd" clip-rule="evenodd" d="M24.2395 47.3708L15.3296 31.333H48.5931V36.382C47.7021 43.0644 44.5836 46.0343 39.3862 47.2223L24.2395 47.3708ZM22.1605 2.68468e-05L0.925323 36.5305C1.22232 47.9648 13.1021 47.3708 14.7356 47.3708H22.309L12.2111 30.2936L29.7339 2.68468e-05H22.1605ZM20.6755 2.68468e-05L0.925323 34.006V11.8798C0.925323 4.45496 5.52875 0.297022 12.2111 2.68468e-05H20.6755ZM32.1098 2.68468e-05L22.1605 16.9288L29.8824 29.2541H48.7416V11.7313C48.5931 4.60346 43.8412 -0.148471 38.4952 2.68468e-05H32.1098ZM21.2695 18.7107L27.5064 29.4026H19.4875C18.0026 29.5511 16.0721 27.7691 17.1116 25.6901L21.2695 18.7107Z" fill="white"/>
</g>
<defs>
<clipPath id="clip0_4_143">
<rect width="47.9648" height="47.3708" fill="white" transform="translate(0.776825)"/>
</clipPath>
</defs>
</svg>
