<svg width="35" height="48" viewBox="0 0 35 48" fill="none" xmlns="http://www.w3.org/2000/svg">
<g clip-path="url(#clip0_4_145)">
<path fill-rule="evenodd" clip-rule="evenodd" d="M20.5293 43.2126L19.6383 47.3705H14.5894L13.6984 43.2126H20.5293ZM15.6289 40.8367C16.0744 41.4306 14.4409 38.7577 14.1439 38.1637C8.35248 25.5414 1.52158 8.61265 12.8074 1.03927C13.5499 0.593774 14.7379 -0.148715 14.4409 -0.000216926C-4.12133 5.3457 3.30355 26.1354 15.6289 40.8367ZM18.7473 40.8367C18.3018 41.4306 19.9353 38.7577 20.2323 38.1637C26.0237 25.6899 32.7061 8.61265 21.5688 1.18776C20.8263 0.742272 19.6383 -0.000216929 19.9353 0.148281C38.4975 5.3457 31.0726 26.1354 18.7473 40.8367ZM16.5199 40.8367H18.0048C25.7267 16.6315 22.7568 -0.000216926 17.2623 -0.000216926C10.4314 -0.000216926 9.68896 21.235 16.5199 40.8367ZM13.8469 40.2427C14.2924 40.8367 12.6589 38.3122 12.2134 37.7182C6.42201 30.5903 -4.71532 13.0676 5.97651 3.26673C6.57051 2.67274 7.75849 2.07875 7.46149 2.22725C-6.94278 9.35514 2.56107 28.6598 13.8469 40.2427ZM20.5293 40.2427C20.0838 40.8367 21.7173 38.3122 22.1628 37.7182C27.9542 30.5903 39.0915 13.0676 28.3997 3.26673C27.6572 2.67274 26.4692 2.07875 26.7662 2.22725C41.319 9.20664 31.8151 28.6598 20.5293 40.2427Z" fill="white"/>
</g>
<defs>
<clipPath id="clip0_4_145">
<rect width="34.006" height="47.3708" fill="white" transform="translate(0.185272)"/>
</clipPath>
</defs>
</svg>
