<?xml version="1.0" encoding="utf-8"?>
<!-- Generator: Adobe Illustrator 27.2.0, SVG Export Plug-In . SVG Version: 6.00 Build 0)  -->
<svg version="1.1" id="Warstwa_1" xmlns="http://www.w3.org/2000/svg" xmlns:xlink="http://www.w3.org/1999/xlink" x="0px" y="0px"
	 viewBox="0 0 28.1 39.9" style="enable-background:new 0 0 28.1 39.9;" xml:space="preserve">
<style type="text/css">
	.st0{fill-rule:evenodd;clip-rule:evenodd;fill:#1D1D1B;}
</style>
<path class="st0" d="M2.5,36.7L14,39.9l11.5-3.2l2.6-28.8H-0.1L2.5,36.7L2.5,36.7z M5.2,13.8l0.3,3.5H19l-0.3,3.6H5.9l0.3,3.5h12.1
	l-0.4,4.7l-3.9,1l-3.9-1l-0.3-2.8H6.3l0.5,5.5l7.3,2l7.2-2l1.5-18L5.2,13.8L5.2,13.8z M16,5.3V1.9h-2.5V1.5H16V0h-4.3v3.5h2.5v0.3
	h-2.5v1.5L16,5.3L16,5.3z M21.2,5.3V1.9h-2.5V1.5h2.5V0h-4.3v3.5h2.5v0.3h-2.5v1.5L21.2,5.3L21.2,5.3z M10.8,0v1.8H8.4v1.8h2.5v1.7
	H6.6V0H10.8L10.8,0z"/>
</svg>
