<?xml version="1.0" encoding="utf-8"?>
<!-- Generator: Adobe Illustrator 27.2.0, SVG Export Plug-In . SVG Version: 6.00 Build 0)  -->
<svg version="1.1" id="Warstwa_1" xmlns="http://www.w3.org/2000/svg" xmlns:xlink="http://www.w3.org/1999/xlink" x="0px" y="0px"
	 viewBox="0 0 28.5 28.5" style="enable-background:new 0 0 28.5 28.5;" xml:space="preserve">
<g>
	<path d="M13.9,0c0.2,0,0.4,0,0.6,0c0.4,0.2,0.8,0.4,1.1,0.7c4.1,4,8.1,8.1,12.2,12.2c0.9,0.9,0.9,1.9,0,2.8
		c-1.9,1.9-3.8,3.8-5.7,5.7c-2.2,2.2-4.3,4.3-6.5,6.5c-0.8,0.8-1.9,0.8-2.7,0c-0.7-0.6-1.3-1.3-2-1.9c-3.3-3.3-6.5-6.5-9.8-9.8
		c-0.5-0.5-1-0.9-1.2-1.6c0-0.2,0-0.4,0-0.6c0.2-0.4,0.4-0.8,0.7-1.1c2.7-2.7,5.4-5.4,8.1-8.1C8.9,4.6,9,4.5,9.1,4.4
		c1,1,2.1,2.1,3.1,3.1c0.1,0.1,0.1,0.2,0,0.4c-0.2,1,0.1,1.9,1,2.4c0.2,0.1,0.3,0.3,0.3,0.6c0,2.3,0,4.6,0,6.9
		c0,0.3-0.1,0.5-0.4,0.7c-0.8,0.5-1.2,1.5-0.9,2.4c0.3,0.9,1.1,1.6,2.1,1.6c0.9,0,1.8-0.6,2.1-1.5c0.3-0.9,0-1.9-0.7-2.5
		c-0.2-0.2-0.3-0.4-0.3-0.6c0-2.3,0-4.5,0-6.8c0-0.1,0-0.2,0-0.4c0.1,0.1,0.1,0.1,0.2,0.1c0.8,0.8,1.7,1.7,2.5,2.5
		c0.1,0.1,0.1,0.3,0.1,0.4c-0.4,1.7,1.1,3.1,2.7,2.7c1.1-0.3,1.8-1.5,1.6-2.6c-0.3-1.1-1.4-1.9-2.6-1.7c-0.2,0-0.4,0-0.6-0.2
		c-0.8-0.8-1.7-1.7-2.5-2.5c-0.3-0.3-0.4-0.5-0.3-0.9c0-0.1,0-0.3,0-0.4c-0.2-1.5-1.6-2.2-2.7-2c-0.1,0-0.3,0-0.4-0.1
		c-0.9-0.9-1.9-1.9-2.8-2.8c-0.2-0.2-0.2-0.3,0-0.5c0.5-0.5,1.1-1.1,1.6-1.6C12.7,0.8,13.2,0.2,13.9,0z"/>
</g>
</svg>
