<?xml version="1.0" encoding="UTF-8"?><svg id="Warstwa_1" xmlns="http://www.w3.org/2000/svg" viewBox="0 0 419.27 413.57"><defs><style>.cls-1{fill:#161414;}</style></defs><path class="cls-1" d="m324.15,99.14c-.3-.39-.76-.73-.89-1.17-3.11-10.51-6.4-11.77-17.49-9-14.97,3.73-28.5,10.27-41.05,19-2.54,1.77-5.05,1.3-7.53.75-9.48-2.1-18.93-3.88-28.66-4.85-10.78-1.07-21.5-.81-32.21-.64-11.01.17-21.99,2.09-32.62,4.98-5.01,1.36-8.65.24-12.65-2.42-14.64-9.73-30.05-17.46-48.23-17.74-2.48-.04-3.67.46-4.47,3.01-3.09,9.82-5.82,19.76-5.22,30.08.39,6.7.63,13.64,3.88,19.87l-.03,3.07c-9.74,11.9-16.91,25.17-19.62,40.36-1.88,10.53-1.89,21.21-.61,31.98,1.13,9.49,2.24,18.86,5.27,27.98,8.61,25.9,26.16,42.64,51.26,52.89,12.09,4.93,24.7,5.19,37.12,8.5-4.88,5.24-9.61,11.91-10.05,19.23-.63,10.3-7.94,11.35-14.58,12.81-12.58,2.76-24.79,1.7-35.59-6.67-4.89-3.79-8.89-8.27-11.93-13.51-6.11-10.52-14.37-18.28-26.16-21.98-4.58-1.43-9.21-.36-13.81-.53-1.65-.06-3.05,1.49-3.05,2.7,0,1.34.22,3.11,1.67,4.22,6.34,4.86,12.96,9.34,18.25,15.51,4.97,5.79,8.33,12.36,11.18,19.3,5.5,13.38,15.3,21.79,29.02,26.23,11.72,3.79,23.38,3.53,35.23,1.12,2.04-.41,4.27.05,6.4.1.06.29.22.5.48.63,0,1.39,0,2.78,0,4.17-.72.94-.71,1.88.03,2.81.44,10.7.64,21.4.19,32.1-.24.35-.47.69-.71,1.04-2.06,8.55-9.28,9-15.16,7.23-4.34-1.31-8.57-2.99-12.85-4.51-.75-2.39-1.54-.8-2.31-.02-.38-.18-.47-.46-.25-.84.27-1.18-.15-1.64-1.33-1.3-6.03-2.94-12.06-5.88-18.09-8.82.03-1.65-.82-1.4-1.81-.82-4.73-3.31-9.47-6.62-14.2-9.93-.43-.92-1.25-1.03-2.12-1.04-6.07-3.85-11.09-9.02-16.76-13.37-7.35-5.64-13.27-12.78-20.09-18.98,0-.19.01-.38.01-.57-9.53-11.6-18.57-23.6-25.82-36.72-7.94-14.37-13.99-29.69-18.61-45.43-2.93-9.99-4.43-20.41-6.58-30.63-.27-1.27.51-2.17.98-3.19-.22-.34-.43-.68-.65-1.03-2.26-7.58-.9-15.34-1.17-23.02.64-.1,1.41-.17,1.41-1,0-.82-.77-.9-1.41-1,0-6.34,0-12.67,0-19.01.27-.35.54-.7.81-1.06.51-13.26,3.85-26,7.41-38.67,1.36-4.84,2.29-9.89,4.96-14.3.2-.68.41-1.35.61-2.03,7.58-20.14,18.42-38.35,31.73-55.25,7.83-9.94,16.48-19.09,25.85-27.42,12.88-11.45,27.17-21,42.59-29,18.74-9.73,38.42-16.49,59.09-19.99,13.89-2.35,28.02-3.91,42.2-3.14,33.62,1.8,65.7,9.36,95.27,25.98,13.33,7.49,25.7,16.3,37.26,26.39,19.16,16.72,34.63,36.23,46.56,58.62,9.6,18.03,16.62,36.93,20.47,57.08,2.19,11.45,3.43,22.86,4.01,34.5,1.68,33.63-4.43,65.64-18.11,96.33-11.93,26.76-28.94,49.85-50.39,69.65-10.4,9.6-21.91,17.82-33.94,25.35-12.67,7.93-26.44,13.43-40.31,18.63-6.66,2.5-12.31-.84-13.36-6.65-.22-.35-.45-.69-.67-1.04-.23-12.01-.59-24.03-.04-36.04.11-.08.31-.17.3-.24-.02-.23-.11-.46-.18-.68.03-3.71.05-7.43.08-11.14.63-.6.61-1.21.01-1.82,0-1.39,0-2.78.01-4.16.07-.1.22-.24.19-.31-.09-.21-.25-.39-.38-.58-.68-7.44-.33-14.89-2.1-22.34-1.98-8.3-5.41-15.46-11.24-21.56.03-.32.05-.64.05-.96,21.52-3.13,42.42-7.83,60.52-21.02,15.15-11.04,24.18-26.02,29.39-43.6,3.25-10.98,4.21-22.37,4.98-33.72.9-13.28-1.8-26.15-5.93-38.74-.27-.34-.54-.69-.81-1.03-.8-1.62-2.11-3.01-2.2-4.94-.26-.35-.53-.7-.79-1.06-2.22-6.1-6.66-10.75-10.44-15.82-.76-1.02-1.46-1.49-.86-3.19,3.19-9.1,3.05-18.62,3.22-28.14.08-4.48-1.5-8.56-1.85-12.89.84-.64.83-1.29,0-1.94Z"/></svg>