<?xml version="1.0" encoding="utf-8"?>
<!-- Generator: Adobe Illustrator 27.2.0, SVG Export Plug-In . SVG Version: 6.00 Build 0)  -->
<svg version="1.1" id="Warstwa_1" xmlns="http://www.w3.org/2000/svg" xmlns:xlink="http://www.w3.org/1999/xlink" x="0px" y="0px"
	 viewBox="0 0 28.2 39.9" style="enable-background:new 0 0 28.2 39.9;" xml:space="preserve">
<style type="text/css">
	.st0{fill-rule:evenodd;clip-rule:evenodd;fill:#1D1D1B;}
</style>
<path class="st0" d="M0.1,8l2.5,28.6l11.5,3.3l11.6-3.3L28.2,8L0.1,8L0.1,8z M22.8,13.7l-0.4,3.4H9.1l0.4,3.8H22l-0.8,10.8l-7.2,2
	l-7.2-2l-0.5-5.4h3.5l0.3,2.5l4,1.2l3.9-1.2l0.4-4.4H6.2L5.3,13.7H22.8L22.8,13.7z M21.2,0H23v3.7h2.5v1.7h-4.3V0L21.2,0z M8.6,0
	v1.8h1.6v3.5H12V1.8h1.6V0H8.6L8.6,0z M2.5,0h1.8v1.8H6V0h1.7v5.4H6.1V3.7H4.4v1.7H2.5V0L2.5,0z M14.3,5.4V0h1.8l1.2,2l1.2-2h1.8
	v5.4h-1.8V3l-1.2,1.6L16.1,3v2.4L14.3,5.4L14.3,5.4z"/>
</svg>
