<?xml version="1.0" encoding="utf-8"?>
<!-- Generator: Adobe Illustrator 27.2.0, SVG Export Plug-In . SVG Version: 6.00 Build 0)  -->
<svg version="1.1" id="Warstwa_1" xmlns="http://www.w3.org/2000/svg" xmlns:xlink="http://www.w3.org/1999/xlink" x="0px" y="0px"
	 viewBox="0 0 32.7 31.7" style="enable-background:new 0 0 32.7 31.7;" xml:space="preserve">
<style type="text/css">
	.st0{fill-rule:evenodd;clip-rule:evenodd;fill:#1D1D1B;}
</style>
<path class="st0" d="M32.7,5.7c0-3.2-2.6-5.7-5.8-5.7H5.8C2.6,0,0,2.6,0,5.7v20.4c0,3.2,2.6,5.7,5.8,5.7h21.1c3.2,0,5.8-2.6,5.8-5.7
	V5.7L32.7,5.7z M24.7,11.5h-3v10.9h3V11.5L24.7,11.5z M6.8,22.4L11.5,9V8h3.7l5,14.4H17L15.7,19h-4.8l-1.1,3.5h-3V22.4z M11.6,16.2
	H15l-1.7-5.5L11.6,16.2L11.6,16.2z M23.2,7.1c0.9,0,1.7,0.7,1.7,1.7c0,0.9-0.7,1.7-1.7,1.7c-0.9,0-1.7-0.7-1.7-1.7
	C21.5,7.8,22.3,7.1,23.2,7.1L23.2,7.1z"/>
</svg>
