<svg width="28" height="28" viewBox="0 0 28 28" fill="none" xmlns="http://www.w3.org/2000/svg">
<path d="M14.2503 0C16.1397 0.0377881 18.0669 0.0755762 19.9941 0.113364C21.09 0.151152 22.148 0.302305 23.1683 0.717974C25.0955 1.51152 26.4559 2.90968 27.2494 4.87467C27.5517 5.63043 27.7029 6.46177 27.7785 7.25532C27.8918 8.2756 27.8918 9.29587 27.8918 10.3539C27.8918 13.1503 27.8918 15.9466 27.8918 18.7429C27.8918 19.6876 27.8163 20.6323 27.5895 21.5392C27.325 22.7107 26.8715 23.7687 26.078 24.7134C25.1333 25.8471 23.9241 26.6028 22.5259 27.0563C21.7324 27.283 20.901 27.4342 20.0697 27.472C19.0494 27.5475 17.9913 27.5475 16.9711 27.5475C14.8927 27.5475 12.8144 27.5475 10.736 27.5475C9.8669 27.5475 8.99778 27.5097 8.12865 27.472C7.03279 27.3964 5.93694 27.2452 4.95445 26.7918C2.76274 25.8093 1.32679 24.1466 0.759968 21.8415C0.53324 20.9724 0.457664 20.0655 0.419876 19.1586C0.306511 17.6093 0.382087 16.0599 0.344299 14.5106C0.344299 13.0369 0.344299 11.5254 0.344299 10.0516C0.344299 9.10693 0.382087 8.20002 0.457664 7.25532C0.571028 6.08389 0.911121 4.95024 1.44015 3.89217C1.89361 3.02305 2.5738 2.34286 3.32956 1.73825C4.42541 0.869126 5.71021 0.415669 7.07058 0.226729C8.54432 0.0377881 10.0558 0.0377881 11.5674 0C12.4743 0 13.3434 0 14.2503 0ZM14.7416 25.0535C16.1019 25.0913 18.0291 25.0535 19.9563 24.9779C20.6743 24.9401 21.3545 24.8268 22.0347 24.6001C23.6596 23.9954 24.7554 22.824 25.0955 21.0858C25.2844 20.0655 25.36 19.0452 25.36 18.0249C25.4356 15.7576 25.4356 13.4904 25.3978 11.1853C25.36 9.8627 25.36 8.5779 25.2467 7.25532C25.1711 6.31061 24.831 5.4037 24.302 4.61015C23.6973 3.70323 22.7904 3.1742 21.7702 2.8719C20.9766 2.64517 20.1453 2.56959 19.3139 2.5318C18.1803 2.5318 17.0089 2.5318 15.8752 2.49401C13.6079 2.45623 11.3028 2.45623 9.03556 2.5318C8.39317 2.56959 7.78856 2.56959 7.18395 2.68296C5.93694 2.90968 4.87887 3.47651 4.08532 4.49678C3.55629 5.17697 3.32956 5.89494 3.17841 6.61292C2.98947 7.48204 2.95168 8.35117 2.91389 9.2203C2.8761 10.6185 2.8761 11.9788 2.8761 13.377C2.8761 15.3798 2.8761 17.3825 2.95168 19.3475C2.98947 19.9899 3.06504 20.6323 3.2162 21.2369C3.48071 22.2572 3.97196 23.1641 4.84108 23.8443C5.63463 24.4867 6.54155 24.7512 7.52404 24.9024C8.50653 25.0157 9.48902 25.0913 10.4715 25.0913C11.6807 25.0913 12.9277 25.0535 14.7416 25.0535Z" fill="white"/>
<path d="M7.03281 13.8305C7.03281 9.78712 10.3204 6.72629 14.137 6.72629C18.0669 6.72629 21.2411 9.93828 21.2411 13.8305C21.2411 17.647 18.1803 20.8968 14.137 20.9346C10.207 20.9346 7.03281 17.7604 7.03281 13.8305ZM18.7093 13.7927C18.7093 11.2609 16.631 9.2203 14.137 9.2203C11.6807 9.2203 9.56461 11.1853 9.56461 13.7927C9.56461 16.2867 11.6052 18.3272 14.137 18.3272C16.6688 18.365 18.7093 16.3245 18.7093 13.7927Z" fill="white"/>
<path d="M19.8052 6.42397C19.8052 5.51705 20.561 4.76129 21.4679 4.76129C22.4126 4.76129 23.1683 5.51705 23.1306 6.42397C23.1306 7.29309 22.4126 8.08664 21.4301 8.08664C20.5232 8.12443 19.8052 7.36867 19.8052 6.42397Z" fill="white"/>
</svg>
