<svg width="29" height="28" viewBox="0 0 29 28" fill="none" xmlns="http://www.w3.org/2000/svg">
<path d="M0.796783 25.1291C0.796783 17.5715 0.796783 10.0138 0.796783 2.41844C0.834572 2.34286 0.87236 2.26729 0.87236 2.19171C0.985724 1.13364 1.81706 0.302305 2.83734 0.0755762C2.95071 0.0377881 3.10186 0.0377881 3.21522 0C10.7728 0 18.3305 0 25.9259 0C26.0014 0.0377881 26.077 0.0755762 26.1526 0.0755762C27.2107 0.188941 28.042 1.02028 28.2687 2.04056C28.3065 2.15392 28.3065 2.30507 28.3443 2.41844C28.3443 9.97606 28.3443 17.5337 28.3443 25.1291C28.3065 25.2047 28.2687 25.2802 28.2687 25.3558C28.1554 26.4139 27.324 27.2452 26.3038 27.472C26.1904 27.5097 26.0392 27.5097 25.9259 27.5475C18.3683 27.5475 10.8106 27.5475 3.21522 27.5475C3.13965 27.5097 3.06407 27.472 2.98849 27.472C1.93043 27.3586 1.09909 26.5272 0.87236 25.507C0.87236 25.3936 0.834572 25.2425 0.796783 25.1291ZM15.9498 11.8277C15.9498 11.4876 15.9498 11.2231 15.9498 10.9586C15.9498 10.3917 15.6853 10.1272 15.1185 10.1272C14.136 10.1272 13.1535 10.1272 12.171 10.1272C11.6042 10.1272 11.3397 10.3917 11.3397 10.9586C11.3397 15.1908 11.3397 19.4609 11.3397 23.6931C11.3397 24.26 11.642 24.5623 12.2088 24.5623C13.1535 24.5623 14.136 24.5623 15.0807 24.5623C15.6853 24.5623 15.9498 24.2978 15.9498 23.6931C15.9498 21.5392 15.9498 19.3475 15.9498 17.1936C15.9498 16.4756 16.101 15.7954 16.4033 15.153C16.8567 14.2461 17.6503 13.7927 18.6706 13.8682C19.6153 13.9438 20.2954 14.5106 20.56 15.4931C20.6733 16.0222 20.7489 16.5512 20.7867 17.0802C20.8245 19.2719 20.7867 21.4636 20.7867 23.6554C20.7867 24.3355 21.0134 24.5623 21.7314 24.5623C22.7139 24.5623 23.6586 24.5623 24.6411 24.5623C25.2079 24.5623 25.5102 24.26 25.5102 23.6931C25.5102 21.4259 25.5102 19.1208 25.5102 16.8535C25.5102 15.7576 25.4346 14.6996 25.1701 13.6415C24.8678 12.5079 24.3388 11.4876 23.3563 10.7696C22.6383 10.2406 21.8448 10.0138 20.9756 9.93827C19.8798 9.8627 18.8217 9.90048 17.8014 10.3162C17.0457 10.6185 16.4411 11.1097 15.9498 11.8277ZM4.76453 17.3447C4.76453 19.4609 4.76453 21.5392 4.76453 23.6554C4.76453 24.26 5.06684 24.5623 5.67145 24.5623C6.57836 24.5623 7.44749 24.5623 8.3544 24.5623C9.11017 24.5623 9.37468 24.2978 9.37468 23.542C9.37468 21.0858 9.37468 18.6295 9.37468 16.1355C9.37468 14.4351 9.37468 12.6968 9.37468 10.9963C9.37468 10.3917 9.07238 10.0894 8.46777 10.0894C7.52307 10.0894 6.57836 10.0894 5.63366 10.0894C5.02905 10.0894 4.76453 10.3539 4.76453 10.9586C4.76453 13.1125 4.76453 15.2286 4.76453 17.3447ZM10.0171 5.97052C10.0171 4.34563 8.6945 2.98526 7.03182 2.98526C5.40693 2.98526 4.04656 4.30784 4.08435 5.93273C4.08435 7.6332 5.40693 8.8802 7.06961 8.91799C8.6945 8.95578 10.0171 7.59541 10.0171 5.97052Z" fill="white"/>
</svg>
