<svg width="190" height="47" viewBox="0 0 190 47" fill="none" xmlns="http://www.w3.org/2000/svg">
<path fill-rule="evenodd" clip-rule="evenodd" d="M148.091 36.5748L154.884 20.5277L161.051 23.1328L150.704 46.8908H145.479L135.132 23.1328L141.298 20.5277L148.091 36.5748Z" fill="white"/>
<path fill-rule="evenodd" clip-rule="evenodd" d="M83.8174 22.195V0H77.1287V33.1361C77.1287 33.3445 77.1287 33.4487 77.1287 33.6571C77.1287 40.9513 83.0858 46.8908 90.4015 46.8908C97.7172 46.8908 103.674 40.9513 103.674 33.6571C103.674 33.4487 103.674 33.3445 103.674 33.1361V0H96.9857V22.195C95 21.0487 92.8053 20.4235 90.4015 20.4235C88.1023 20.4235 85.8031 21.0487 83.8174 22.195ZM90.506 27.0924C94.1639 27.0924 97.0902 30.0101 97.0902 33.6571C97.0902 37.3042 94.1639 40.2218 90.506 40.2218C86.8482 40.2218 83.9219 37.3042 83.9219 33.6571C83.8174 30.0101 86.8482 27.0924 90.506 27.0924Z" fill="white"/>
<path fill-rule="evenodd" clip-rule="evenodd" d="M67.3047 22.195C65.319 21.0487 63.1243 20.4235 60.7205 20.4235C53.4048 20.4235 47.4477 26.363 47.4477 33.6571C47.4477 40.9513 53.4048 46.8908 60.616 46.8908C63.0198 46.8908 65.319 46.2655 67.2002 45.1193V46.8908H73.7844V20.4235H67.2002V22.195H67.3047ZM67.3047 33.6571C67.3047 37.3042 64.3784 40.2218 60.7205 40.2218C57.0627 40.2218 54.1364 37.3042 54.1364 33.6571C54.1364 30.0101 57.0627 27.0924 60.7205 27.0924C64.2739 27.0924 67.3047 30.0101 67.3047 33.6571Z" fill="white"/>
<path fill-rule="evenodd" clip-rule="evenodd" d="M39.1914 22.195C41.0726 21.0487 43.3718 20.4235 45.7756 20.4235V26.9882C42.5358 26.9882 39.8185 29.2807 39.1914 32.3025V46.8908H32.6073V20.4235H39.1914V22.195Z" fill="white"/>
<path fill-rule="evenodd" clip-rule="evenodd" d="M113.916 35.4286C114.752 38.1378 117.261 40.2218 120.291 40.2218C122.695 40.2218 124.89 38.8672 126.04 36.8874H133.146C131.683 42.6185 126.458 46.8908 120.291 46.8908C112.976 46.8908 107.019 40.9513 107.019 33.6571C107.019 26.363 112.976 20.4235 120.291 20.4235C126.458 20.4235 131.683 24.5916 133.146 30.3227C133.669 32.3025 133.564 33.8655 133.46 35.4286H113.916ZM126.04 30.3227H114.648C115.798 28.3429 117.888 26.9882 120.396 26.9882C122.695 27.0924 124.89 28.3429 126.04 30.3227Z" fill="white"/>
<path fill-rule="evenodd" clip-rule="evenodd" d="M86.0121 17.1933H94.8955C95.418 17.1933 95.9406 16.7765 95.9406 16.1513C95.9406 15.6303 95.5225 15.1093 94.8955 15.1093H86.0121C85.4895 15.1093 84.967 15.5261 84.967 16.1513C84.967 16.7765 85.4895 17.1933 86.0121 17.1933Z" fill="white"/>
<path fill-rule="evenodd" clip-rule="evenodd" d="M87.3707 12.0874H93.6414C94.1639 12.0874 94.6865 11.6706 94.6865 11.0454C94.6865 10.5244 94.2684 10.0034 93.6414 10.0034H87.3707C86.8482 10.0034 86.3256 10.4202 86.3256 11.0454C86.3256 11.6706 86.7437 12.0874 87.3707 12.0874Z" fill="white"/>
<path fill-rule="evenodd" clip-rule="evenodd" d="M88.6248 7.08574H92.2827C92.8053 7.08574 93.3278 6.66894 93.3278 6.04373C93.3278 5.52272 92.9098 5.00171 92.2827 5.00171H88.6248C88.1023 5.00171 87.5797 5.41852 87.5797 6.04373C87.5797 6.56473 88.1023 7.08574 88.6248 7.08574Z" fill="white"/>
<path d="M90.506 1.87563C91.0255 1.87563 91.4466 1.45576 91.4466 0.937815C91.4466 0.419874 91.0255 0 90.506 0C89.9865 0 89.5654 0.419874 89.5654 0.937815C89.5654 1.45576 89.9865 1.87563 90.506 1.87563Z" fill="white"/>
<path fill-rule="evenodd" clip-rule="evenodd" d="M179.719 33.9449L163.594 27.1543L166.171 21.0612L190.027 31.3388V36.551L166.171 46.8286L163.594 40.7354L179.719 33.9449Z" fill="white"/>
<path fill-rule="evenodd" clip-rule="evenodd" d="M10.3261 33.9611L26.4507 40.7516L23.8737 46.8447L0.018063 36.5672V31.355L23.8737 21.0774L26.4507 27.1706L10.3261 33.9611Z" fill="white"/>
</svg>
