<?xml version="1.0" encoding="utf-8"?>
<!-- Generator: Adobe Illustrator 27.2.0, SVG Export Plug-In . SVG Version: 6.00 Build 0)  -->
<svg version="1.1" id="Warstwa_1" xmlns="http://www.w3.org/2000/svg" xmlns:xlink="http://www.w3.org/1999/xlink" x="0px" y="0px"
	 viewBox="0 0 33.1 31.7" style="enable-background:new 0 0 33.1 31.7;" xml:space="preserve">
<style type="text/css">
	.st0{fill-rule:evenodd;clip-rule:evenodd;fill:#1D1D1B;}
</style>
<path class="st0" d="M32.9,6c0-3.3-2.7-6.1-6-6.1H6.3c-3.3,0-6,2.7-6,6.1v19.8c0,3.3,2.7,6.1,6,6.1h20.6c3.3,0,6-2.7,6-6.1V6L32.9,6
	z M26.5,14.4V12c0,0-5.1-2.3-6.9,1.6c-2,4.3,4.8,4.8,4.6,6c-0.3,1.7-4.8,0-4.8-0.3v0c0,0,0,0,0,0l0,0L19.3,22c0,0.2,7.5,2.8,7.9-2.7
	c0.2-3.3-5.5-3.5-5-4.8C22.6,13.4,26.3,14.1,26.5,14.4L26.5,14.4C26.6,14.5,26.6,14.4,26.5,14.4L26.5,14.4z M7.5,22.3V8h5.2
	c6.9,0.1,6.9,9.7,0,9.9h-2.3v4.4H7.5L7.5,22.3z M10.6,10.8v4.5h2c3-0.4,3.3-4.3,0-4.5C12.2,10.8,10.6,10.8,10.6,10.8L10.6,10.8z"/>
</svg>
