<svg width="190" height="62" viewBox="0 0 190 62" fill="none" xmlns="http://www.w3.org/2000/svg">
<g clip-path="url(#clip0_4_106)">
<path fill-rule="evenodd" clip-rule="evenodd" d="M148.091 36.5748L154.884 20.5277L161.051 23.1328L150.704 46.8908H145.479L135.132 23.1328L141.298 20.5277L148.091 36.5748Z" fill="white"/>
<path fill-rule="evenodd" clip-rule="evenodd" d="M83.8174 22.195V0H77.1287V33.1361C77.1287 33.3445 77.1287 33.4487 77.1287 33.6571C77.1287 40.9513 83.0858 46.8908 90.4015 46.8908C97.7172 46.8908 103.674 40.9513 103.674 33.6571C103.674 33.4487 103.674 33.3445 103.674 33.1361V0H96.9857V22.195C95 21.0487 92.8053 20.4235 90.4015 20.4235C88.1023 20.4235 85.8031 21.0487 83.8174 22.195ZM90.506 27.0924C94.1639 27.0924 97.0902 30.0101 97.0902 33.6571C97.0902 37.3042 94.1639 40.2218 90.506 40.2218C86.8482 40.2218 83.9219 37.3042 83.9219 33.6571C83.8174 30.0101 86.8482 27.0924 90.506 27.0924Z" fill="white"/>
<path fill-rule="evenodd" clip-rule="evenodd" d="M67.3047 22.195C65.319 21.0487 63.1243 20.4235 60.7205 20.4235C53.4048 20.4235 47.4477 26.363 47.4477 33.6571C47.4477 40.9513 53.4048 46.8908 60.616 46.8908C63.0198 46.8908 65.319 46.2655 67.2002 45.1193V46.8908H73.7844V20.4235H67.2002V22.195H67.3047ZM67.3047 33.6571C67.3047 37.3042 64.3784 40.2218 60.7205 40.2218C57.0627 40.2218 54.1364 37.3042 54.1364 33.6571C54.1364 30.0101 57.0627 27.0924 60.7205 27.0924C64.2739 27.0924 67.3047 30.0101 67.3047 33.6571Z" fill="white"/>
<path fill-rule="evenodd" clip-rule="evenodd" d="M39.1914 22.195C41.0726 21.0487 43.3718 20.4235 45.7756 20.4235V26.9882C42.5358 26.9882 39.8185 29.2807 39.1914 32.3025V46.8908H32.6073V20.4235H39.1914V22.195Z" fill="white"/>
<path fill-rule="evenodd" clip-rule="evenodd" d="M113.916 35.4286C114.752 38.1378 117.261 40.2218 120.291 40.2218C122.695 40.2218 124.89 38.8672 126.04 36.8874H133.146C131.683 42.6185 126.458 46.8908 120.291 46.8908C112.976 46.8908 107.019 40.9513 107.019 33.6571C107.019 26.363 112.976 20.4235 120.291 20.4235C126.458 20.4235 131.683 24.5916 133.146 30.3227C133.669 32.3025 133.564 33.8655 133.46 35.4286H113.916ZM126.04 30.3227H114.648C115.798 28.3429 117.888 26.9882 120.396 26.9882C122.695 27.0924 124.89 28.3429 126.04 30.3227Z" fill="white"/>
<path fill-rule="evenodd" clip-rule="evenodd" d="M86.0121 17.1933H94.8955C95.418 17.1933 95.9406 16.7765 95.9406 16.1513C95.9406 15.6303 95.5225 15.1093 94.8955 15.1093H86.0121C85.4895 15.1093 84.967 15.5261 84.967 16.1513C84.967 16.7765 85.4895 17.1933 86.0121 17.1933Z" fill="white"/>
<path fill-rule="evenodd" clip-rule="evenodd" d="M87.3707 12.0874H93.6414C94.1639 12.0874 94.6865 11.6706 94.6865 11.0454C94.6865 10.5244 94.2684 10.0034 93.6414 10.0034H87.3707C86.8482 10.0034 86.3256 10.4202 86.3256 11.0454C86.3256 11.6706 86.7437 12.0874 87.3707 12.0874Z" fill="white"/>
<path fill-rule="evenodd" clip-rule="evenodd" d="M88.6248 7.08574H92.2827C92.8053 7.08574 93.3278 6.66894 93.3278 6.04373C93.3278 5.52272 92.9098 5.00171 92.2827 5.00171H88.6248C88.1023 5.00171 87.5797 5.41852 87.5797 6.04373C87.5797 6.56473 88.1023 7.08574 88.6248 7.08574Z" fill="white"/>
<path d="M90.506 1.87563C91.0255 1.87563 91.4466 1.45576 91.4466 0.937815C91.4466 0.419874 91.0255 0 90.506 0C89.9865 0 89.5654 0.419874 89.5654 0.937815C89.5654 1.45576 89.9865 1.87563 90.506 1.87563Z" fill="white"/>
<path fill-rule="evenodd" clip-rule="evenodd" d="M179.719 33.9449L163.594 27.1543L166.171 21.0612L190.027 31.3388V36.551L166.171 46.8286L163.594 40.7354L179.719 33.9449Z" fill="white"/>
<path fill-rule="evenodd" clip-rule="evenodd" d="M10.3261 33.9611L26.4507 40.7516L23.8737 46.8447L0.0180626 36.5672V31.355L23.8737 21.0774L26.4507 27.1706L10.3261 33.9611Z" fill="white"/>
<path d="M32.7118 62V53.3513H36.1606C38.0418 53.3513 39.0869 54.2891 39.0869 56.2689V59.0823C39.0869 60.958 38.1463 62 36.1606 62H32.7118ZM33.3388 61.479H36.2651C37.7283 61.479 38.4598 60.7496 38.4598 59.2908V56.2689C38.4598 54.8101 37.7283 54.0807 36.2651 54.0807H33.3388V61.479Z" fill="white"/>
<path d="M42.1177 61.7916L45.1485 53.3513H46.2981L49.3289 61.7916L49.1199 62H48.5974L47.7613 59.6034H43.4763L42.6403 62H42.1177V61.7916ZM43.6854 58.9781H47.5523L45.7756 53.8723H45.462L43.6854 58.9781Z" fill="white"/>
<path d="M52.5688 62V53.3513H53.5094L56.6447 60.0202L59.78 53.3513H60.7206V62H60.0935V53.9765L56.9582 60.6454H56.2266L53.0913 53.9765V62H52.5688Z" fill="white"/>
<path d="M65.0055 62V53.3513H65.6326V62H65.0055Z" fill="white"/>
<path d="M68.9769 61.7916L72.0077 53.3513H73.1573L76.1881 61.7916L76.0836 62H75.561L74.7249 59.6034H70.44L69.6039 62H69.0814L68.9769 61.7916ZM70.5445 58.9781H74.4114L72.6347 53.8723H72.3212L70.5445 58.9781Z" fill="white"/>
<path d="M79.3234 62V53.3513H80.055L85.2805 61.1664V53.3513H85.9076V62H85.176L79.9505 54.1849V62H79.3234Z" fill="white"/>
<path d="M95 62V53.3513H99.0759C100.33 53.3513 100.853 53.9765 100.853 55.1227V56.4773C100.853 57.6235 100.33 58.1445 99.2849 58.2487L101.062 61.7916L100.957 62H100.435L98.6579 58.3529H95.6271V62H95ZM95.6271 57.7277H99.0759C99.8075 57.7277 100.226 57.3109 100.226 56.5815V55.0185C100.226 54.2891 99.8075 53.8723 99.0759 53.8723H95.6271V57.7277Z" fill="white"/>
<path d="M103.988 61.7916L107.019 53.3513H108.168L111.199 61.7916L111.095 62H110.572L109.736 59.6034H105.451L104.615 62H104.092L103.988 61.7916ZM105.556 58.9781H109.422L107.646 53.8723H107.332L105.556 58.9781Z" fill="white"/>
<path d="M114.334 62V53.3513H118.201C119.455 53.3513 119.978 53.9765 119.978 55.1227V56.0605C119.978 56.3731 119.873 56.5815 119.769 56.7899L119.351 57.3109L119.873 57.7277C120.187 57.9361 120.292 58.2487 120.292 58.7697V60.2286C120.292 61.479 119.664 62 118.515 62H114.334ZM114.961 57.1025H118.306C119.037 57.1025 119.455 56.6857 119.455 55.9563V55.0185C119.455 54.2891 119.037 53.8723 118.306 53.8723H114.961V57.1025ZM114.961 61.479H118.619C119.351 61.479 119.769 61.0622 119.769 60.3328V58.8739C119.769 58.1445 119.351 57.7277 118.619 57.7277H114.961V61.479Z" fill="white"/>
<path d="M124.263 62V53.3513H124.89V62H124.263Z" fill="white"/>
<path d="M129.175 62V53.3513H129.907L135.132 61.1664V53.3513H135.759V62H135.028L129.802 54.1849V62H129.175ZM131.892 52.4134L133.46 50.7462L133.878 51.163L132.31 52.8302L131.892 52.4134Z" fill="white"/>
<path d="M139.521 61.6874V61.479H143.388C144.12 61.479 144.538 61.0622 144.538 60.3328V59.2907C144.538 58.6655 144.224 58.3529 143.702 58.2487L140.88 57.6235C140.044 57.4151 139.626 56.8941 139.626 55.8521V55.2269C139.626 53.9765 140.253 53.4554 141.403 53.4554H144.538L144.956 53.768V53.9765H141.403C140.671 53.9765 140.253 54.3933 140.253 55.1227V55.9563C140.253 56.5815 140.567 56.9983 141.089 57.1025L143.911 57.6235C144.747 57.8319 145.165 58.3529 145.165 59.3949V60.2286C145.165 61.479 144.538 62 143.388 62H140.044L139.521 61.6874Z" fill="white"/>
<path d="M149.032 62V53.3513H149.659V58.3529L154.153 53.3513H154.675L154.78 53.5597L151.749 56.9983L155.093 61.8958L154.989 62.1042H154.466L151.331 57.4151L149.659 59.2908V62.1042H149.032V62Z" fill="white"/>
<path d="M158.438 62V53.3513H159.065V62H158.438Z" fill="white"/>
</g>
<defs>
<clipPath id="clip0_4_106">
<rect width="190" height="62" fill="white"/>
</clipPath>
</defs>
</svg>
