<?xml version="1.0" encoding="utf-8"?>
<!-- Generator: Adobe Illustrator 27.2.0, SVG Export Plug-In . SVG Version: 6.00 Build 0)  -->
<svg version="1.1" id="Warstwa_1" xmlns="http://www.w3.org/2000/svg" xmlns:xlink="http://www.w3.org/1999/xlink" x="0px" y="0px"
	 viewBox="0 0 31.6 28.5" style="enable-background:new 0 0 31.6 28.5;" xml:space="preserve">
<g id="X59NUj_00000003807400405822252660000017235780191906276779_">
	<g>
		<path d="M5.3,21.8c0-0.4,0.1-0.9,0.1-1.4c0-0.2-0.1-0.3-0.2-0.3c-1-0.5-1.9-1-2.8-1.7c-0.7-0.6-1.3-1.2-1.8-2
			c-1-1.8-0.8-3.7,0.5-5.2C2.3,10,3.6,9.1,5.1,8.4c0.2-0.1,0.4-0.2,0.3-0.5C5.3,6.3,5.3,4.7,5.9,3.1c0.6-1.6,1.7-2.7,3.4-3
			c1-0.2,2,0,3,0.3c1.1,0.4,2.2,1,3.1,1.7c0.3,0.2,0.5,0.2,0.8,0c1.2-0.8,2.4-1.5,3.8-1.9c1.4-0.4,2.8-0.3,4.1,0.6
			c0.9,0.7,1.5,1.7,1.8,2.7c0.4,1.5,0.5,3,0.3,4.5c0,0.2,0.1,0.3,0.2,0.4c1.3,0.6,2.6,1.3,3.6,2.4c0.8,0.8,1.3,1.6,1.5,2.7
			c0.2,1.3-0.1,2.4-0.9,3.4c-1,1.4-2.4,2.3-3.8,3c-0.7,0.3-0.7,0.3-0.6,1.1c0.1,1.2,0,2.3-0.2,3.4c-0.4,1.6-1.1,3-2.6,3.7
			c-1.3,0.6-2.6,0.5-3.9,0.1c-1.3-0.4-2.4-1.1-3.5-1.8c-0.2-0.1-0.3-0.1-0.4,0c-1.2,0.9-2.5,1.6-4,2c-1.6,0.4-3.2,0.3-4.5-0.9
			c-0.8-0.8-1.3-1.8-1.5-2.9C5.4,23.6,5.4,22.8,5.3,21.8z M15.7,8.6c-0.8,0-1.7,0.1-2.7,0.1c-0.3,0-0.4,0.1-0.6,0.4
			c-1.1,1.5-2,3.2-2.8,4.9c-0.1,0.1-0.1,0.3,0,0.4c0.7,1.6,1.6,3.1,2.6,4.6c0.3,0.4,0.6,0.7,1.2,0.7c1.7,0.1,3.4,0.1,5.1,0
			c0.2,0,0.4-0.1,0.5-0.3c1.1-1.6,2.1-3.2,2.9-5c0.1-0.1,0.1-0.2,0-0.4c-0.8-1.8-1.8-3.4-2.9-5c-0.1-0.2-0.3-0.3-0.5-0.3
			C17.7,8.7,16.7,8.6,15.7,8.6z M7.7,6.1c0,0.3,0,0.6,0,1c0,0.3,0.1,0.4,0.4,0.3C9,7.1,10,6.9,11,6.7c0.2,0,0.4,0,0.5-0.2
			c0.7-0.9,1.4-1.7,2.2-2.5c0.1-0.1,0.2-0.2,0-0.3c-0.9-0.6-1.8-1.1-2.8-1.3C9.4,2.1,8.4,2.6,8,4.1C7.8,4.8,7.7,5.5,7.7,6.1z
			 M23.8,7.5c0.1-0.9,0.1-1.8-0.1-2.7c-0.1-0.5-0.3-1.1-0.6-1.5c-0.4-0.6-0.9-1-1.7-0.9c-1.4,0-2.6,0.7-3.7,1.4
			c-0.2,0.1-0.1,0.2,0,0.4c0.7,0.7,1.4,1.5,2.1,2.3c0.1,0.2,0.2,0.3,0.5,0.3c0.3,0,0.6,0.1,0.9,0.2C22.2,7,23,7.2,23.8,7.5z
			 M7.7,22.4c0,0.9,0.1,1.7,0.5,2.6c0.6,1.1,1.4,1.3,2.4,1.2c1.1-0.2,2.1-0.7,3-1.3c0.2-0.1,0.2-0.2,0-0.4c-0.8-0.7-1.5-1.5-2.2-2.4
			c-0.1-0.1-0.2-0.2-0.4-0.2c-0.4-0.1-0.8-0.1-1.3-0.2c-0.7-0.1-1.3-0.3-2-0.5c-0.2-0.1-0.3,0-0.3,0.2C7.7,21.7,7.6,22,7.7,22.4z
			 M23.9,22.3c0-0.3,0-0.6,0-0.9c0-0.3-0.1-0.3-0.4-0.3c-1,0.3-1.9,0.5-2.9,0.6c-0.3,0-0.6,0.2-0.8,0.5c-0.6,0.8-1.3,1.5-2,2.2
			c-0.1,0.1-0.2,0.2,0,0.3c0.9,0.6,1.8,1.1,2.8,1.3c1.6,0.4,2.5-0.1,3-1.6C23.8,23.7,23.9,23,23.9,22.3z M2.3,14.2
			c0,0.5,0.2,0.9,0.5,1.3c0.7,1,1.8,1.6,2.8,2.1c0.2,0.1,0.2,0.1,0.3-0.1c0.3-1.1,0.6-2.2,1-3.2c0-0.1,0-0.2,0-0.2
			c-0.4-1.1-0.8-2.2-1.1-3.3c0-0.2-0.1-0.2-0.3-0.1C4.5,11.3,3.5,12,2.7,13C2.5,13.4,2.3,13.8,2.3,14.2z M29.3,14.2
			c0-0.5-0.2-1-0.6-1.4C28,11.9,27,11.3,26,10.8c-0.2-0.1-0.3-0.1-0.4,0.2C25.4,12,25,13,24.6,14c0,0.1-0.1,0.2,0,0.3
			c0.4,1.1,0.8,2.1,1,3.2c0.1,0.2,0.1,0.2,0.3,0.1c1-0.5,1.9-1.1,2.6-1.9C29,15.4,29.2,14.8,29.3,14.2z M8.5,17.3
			c-0.2,0.4-0.3,0.8-0.4,1.2c0,0.1,0,0.2,0.1,0.2C8.6,18.8,9,19,9.4,19C9.1,18.5,8.8,17.9,8.5,17.3z M23.1,17.4
			c-0.2,0.2-0.9,1.4-1,1.7c0.4,0,0.8-0.2,1.2-0.3c0.1,0,0.1-0.1,0.1-0.2C23.4,18.2,23.3,17.8,23.1,17.4z M23.1,11.2
			c0.1-0.5,0.2-0.9,0.3-1.2c0-0.1,0-0.2-0.1-0.2c-0.3-0.1-0.6-0.2-0.9-0.2c-0.1,0-0.2-0.1-0.2,0c-0.1,0.1,0,0.1,0,0.2
			C22.5,10.2,22.8,10.6,23.1,11.2z M9.1,9.5c-0.3,0-0.6,0.1-0.9,0.3c-0.1,0-0.1,0.1-0.1,0.2c0.1,0.3,0.1,0.5,0.2,0.8
			c0,0.1,0,0.2,0.2,0.2c0.1,0,0.2-0.1,0.2-0.2c0.2-0.4,0.4-0.7,0.6-1.1C9.4,9.6,9.4,9.5,9.1,9.5z M16.8,22.1c-0.6,0-1.1,0-1.6,0
			c-0.1,0-0.1,0-0.2,0c0,0.1,0,0.2,0.1,0.2c0.2,0.2,0.5,0.4,0.7,0.7c0.1,0.1,0.1,0.1,0.2,0C16.2,22.8,16.5,22.5,16.8,22.1z
			 M15.8,6.3C15.8,6.3,15.8,6.3,15.8,6.3c0.2,0,0.4,0,0.7,0c0.2,0,0.3-0.1,0.1-0.3c-0.2-0.2-0.4-0.4-0.7-0.6c-0.1-0.1-0.1-0.1-0.2,0
			c-0.2,0.2-0.5,0.4-0.7,0.7c-0.2,0.2-0.1,0.2,0.1,0.2C15.3,6.3,15.6,6.3,15.8,6.3z"/>
		<path d="M15.8,16.9c-1.4,0-2.6-1.2-2.6-2.6c0-1.5,1.1-2.7,2.6-2.7c1.5,0,2.6,1.1,2.7,2.6C18.4,15.6,17.2,16.9,15.8,16.9z"/>
	</g>
</g>
</svg>
