<?xml version="1.0" encoding="utf-8"?>
<!-- Generator: Adobe Illustrator 27.2.0, SVG Export Plug-In . SVG Version: 6.00 Build 0)  -->
<svg version="1.1" id="Warstwa_1" xmlns="http://www.w3.org/2000/svg" xmlns:xlink="http://www.w3.org/1999/xlink" x="0px" y="0px"
	 viewBox="0 0 42.1 31.9" style="enable-background:new 0 0 42.1 31.9;" xml:space="preserve">
<style type="text/css">
	.st0{fill-rule:evenodd;clip-rule:evenodd;fill:#1D1D1B;}
</style>
<path class="st0" d="M10.7,22c2.7,4.3-3.6,12.3-8.3,9.2c-3.6-2.4,1.4-7.7,5.7-9.2c0.5-0.2-7.6-4-8.1-9.1C-0.5,8.1,10.6,1,16.9,0.1
	c5-0.7,8.7,0.4,9.6,4.7c0.8,4.3-5,9.5-10.7,10s-6.1-3-6.1-3c3.3,2.4,7.4,1.3,10.4-0.7c1.4-0.9,2.8-2,3.4-3.2
	c1.8-3.6,0.1-6.3-7.7-4.5C7.8,5.3,4,10,3.2,12.8s4.2,5.5,6.7,8.1l4-2.2c1.3-2.1,3.2-2.9,4.5-2.3c0.7,0.3,0.7,1.4,0.5,2.6l0,0
	c0,0,1.2-1.3,1.5,0c0.1,0.3-1.7,6.5-1,5.7c1.2-1.3,4-8.9,4.3-9.7c0.3-1,2.7-0.7,2.5,0c-0.4,1.3-1,2.5,0.3,4.8l0.1-0.2
	c1-1.5,2.7-4.3,2.9-5.8c0.1-0.5,2.9-1,2.5,0c-0.8,2-0.1,5.2,0.6,5.1c1.7-0.1,3.2-1.2,6.4-0.2c2.1,0.6,3.3,3.2,3.2,4.5
	c-0.1,1.6-2.1,2.6-2.3,2.5s-0.5,0,0-0.4c0.3-0.2,2.1-1.9,1-3.3c-2.9-3.8-8.1-2-8-1.6s0.9,1.5,0.2,2.5c-0.8,1.3-3,3.1-4.2,2.4
	c-1.7-0.9,0.8-4,1.8-4.9c0-0.1-1.2-3.4-1.2-3.4c-0.7,1.6-1.5,3-2.4,4c1,2.2,0.6,4-1.5,5.1c-1.9,0.9-3,1-3.6,0
	c-0.5-0.8,3.6-4,3.1-4.5c-0.5-0.4-1-2.7-1.1-3.4c0-0.1,0-0.2,0-0.2c0-0.1-0.1,0,0,0.2c-0.4,1.3-4.2,9.7-5.5,9c-1.1-0.6-1-1-0.9-3.7
	c-0.1,0.3-0.1,0.5-0.2,0.6c-0.3,1-1.8,3.7-2.3,3.8c-3.8,0.4-2.2-7.1-2.2-7.1v-0.1C12.1,21.1,11.3,21.5,10.7,22L10.7,22z M9.1,22.7
	c0,0-1.8,1.1-3.3,2.4s-2.7,3-1.4,4C6,30.6,10.9,25.6,9.1,22.7L9.1,22.7z M15.1,25.4c0.2,0.3,1.1-1.6,1.8-3.7s1.3-4.1,0.9-4.1
	C16.6,17.7,13,22.2,15.1,25.4L15.1,25.4z M25.8,22.9c0,0.1-1.8,2.3-2,2.5c-0.1,0.1,0.8-0.4,1.3-0.9c0.3-0.3,0.6-0.6,0.7-0.8
	C25.8,23.4,25.8,22.7,25.8,22.9L25.8,22.9z M31.3,21.1c-0.7,0.2-2,3-1.7,3c0.7-0.2,1.2-0.6,1.5-1.2C31.5,22.7,31.8,20.9,31.3,21.1
	L31.3,21.1z"/>
</svg>
