<svg width="34" height="28" viewBox="0 0 34 28" fill="none" xmlns="http://www.w3.org/2000/svg">
<path d="M32.8689 0.55675C32.8225 0.742333 32.7297 0.927917 32.6369 1.1135C32.4513 1.57746 32.1729 2.04142 31.8482 2.45898C31.3842 3.15492 30.7811 3.75806 30.0851 4.22202C30.0387 4.22202 30.0387 4.26842 29.9923 4.31481C29.9459 4.31481 29.9459 4.31481 29.8995 4.36121C29.9459 4.36121 29.9459 4.36121 29.9923 4.36121C30.5027 4.31481 31.013 4.22202 31.5234 4.08283C32.2657 3.89725 33.0081 3.66527 33.704 3.3405C33.7504 3.3405 33.7504 3.2941 33.7968 3.2941C33.7968 3.3405 33.7504 3.3869 33.704 3.43329C32.8225 4.73238 31.7554 5.79948 30.5027 6.77379L30.4563 6.82019C30.4099 6.86658 30.3635 6.91298 30.3635 6.95938C30.3635 7.42333 30.3635 7.93369 30.3635 8.39765C30.3635 8.67602 30.3171 8.9544 30.3171 9.23277V9.27917C30.2707 9.60394 30.2707 9.88231 30.2243 10.2071C30.1315 10.7638 30.0851 11.2742 29.9459 11.8309C29.8531 12.2021 29.7603 12.6197 29.6676 12.9908C29.482 13.6868 29.25 14.3827 28.9716 15.0786C28.7396 15.6818 28.4613 16.2385 28.1829 16.7953C27.3478 18.4191 26.3271 19.9038 25.1208 21.2957C23.6825 22.8731 22.0586 24.1722 20.2028 25.1929C19.1357 25.7961 18.0222 26.26 16.9087 26.6312C15.7952 27.0024 14.6353 27.2344 13.4754 27.3735C12.8723 27.4663 12.3155 27.5127 11.7124 27.5127C11.1556 27.5591 10.5525 27.5591 9.99572 27.5127C9.29978 27.5127 8.60384 27.4199 7.90791 27.3271C7.07278 27.2344 6.23766 27.0488 5.44893 26.8168C4.52101 26.5848 3.59309 26.26 2.71157 25.8425C2.29401 25.6569 1.83005 25.4713 1.41249 25.2393C0.994927 25.0074 0.530969 24.7754 0.113406 24.497C0.0670105 24.497 0.0670105 24.4506 0.0206146 24.4506V24.4042C0.206198 24.4506 0.438177 24.4506 0.62376 24.4506C1.41249 24.497 2.15482 24.497 2.94355 24.4042C3.22193 24.3578 3.45391 24.3578 3.73228 24.3114C3.77868 24.3578 3.77868 24.3114 3.82507 24.265C4.05705 24.265 4.33543 24.1722 4.56741 24.1258C5.12416 24.033 5.63451 23.8475 6.14487 23.7083C6.65522 23.5227 7.21197 23.3371 7.67593 23.0587C8.51105 22.6412 9.29978 22.1772 10.0421 21.5741C10.0885 21.5277 10.1349 21.4813 10.1813 21.4813C10.1813 21.4813 10.2277 21.4349 10.1813 21.4349H10.1349C9.71734 21.3885 9.29978 21.3421 8.88222 21.2493C8.37186 21.1565 7.90791 20.9709 7.44395 20.7853C5.68091 19.9502 4.47461 18.6047 3.82507 16.7953C3.82507 16.7489 3.77868 16.7025 3.77868 16.6097C3.91787 16.6097 4.01066 16.6561 4.14984 16.6561C4.70659 16.7025 5.21695 16.7489 5.7737 16.7025C6.05207 16.6561 6.37684 16.6097 6.65522 16.5633C6.70162 16.5633 6.70162 16.5633 6.74801 16.5169C6.79441 16.5169 6.8408 16.5169 6.8408 16.4705C6.79441 16.4705 6.79441 16.4705 6.74801 16.4705C6.60882 16.4241 6.51603 16.4241 6.37684 16.3777C4.52101 15.821 3.08274 14.7075 2.15482 12.9908C1.78366 12.3413 1.55168 11.6918 1.41249 10.9958C1.36609 10.671 1.3197 10.2535 1.3197 9.83592C1.3197 9.78952 1.3197 9.74313 1.3197 9.69673H1.36609C1.78366 9.92871 2.24761 10.1143 2.71157 10.2535C3.26832 10.3927 3.77868 10.5319 4.38182 10.5319C4.38182 10.5319 4.38182 10.5319 4.42822 10.5319C4.42822 10.5319 4.42822 10.5319 4.38182 10.5319C4.05705 10.2999 3.77868 10.0679 3.5003 9.78952C3.45391 9.74313 3.40751 9.74313 3.40751 9.69673C3.03634 9.27917 2.66518 8.81521 2.3868 8.35125C2.01564 7.74811 1.78366 7.09856 1.59807 6.40263C1.50528 6.03146 1.50528 5.70669 1.41249 5.33552V5.28913C1.41249 4.96435 1.41249 4.68598 1.41249 4.36121V4.31481C1.45889 3.85085 1.55168 3.3869 1.64447 2.92294C1.69086 2.78375 1.69086 2.69096 1.73726 2.59817C1.78366 2.41258 1.87645 2.227 1.92284 2.04142C1.96924 1.90223 2.01564 1.71665 2.10843 1.57746C2.20122 1.48467 2.24761 1.39188 2.34041 1.29908C2.3868 1.29908 2.4332 1.34548 2.4332 1.39188C3.63949 2.83015 4.98497 4.08283 6.56243 5.14994C7.11918 5.5211 7.67593 5.84588 8.23268 6.17065C9.16059 6.681 10.1349 7.09856 11.1556 7.46973C12.1763 7.8409 13.2434 8.07288 14.3105 8.25846C14.4961 8.30485 14.6817 8.35125 14.8673 8.35125H14.9137C15.0993 8.39765 15.3312 8.39765 15.5168 8.44404C15.6096 8.44404 15.7024 8.49044 15.7952 8.49044H15.8416C15.9344 8.49044 16.0272 8.53683 16.1664 8.53683H16.2128C16.3519 8.53683 16.4447 8.58323 16.5839 8.53683C16.5839 8.44404 16.5839 8.39765 16.5375 8.30485C16.3983 7.60892 16.3519 6.86658 16.4447 6.17065C16.4911 5.79948 16.5375 5.47471 16.6303 5.10354C16.9087 4.17563 17.3263 3.3405 17.9294 2.59817C18.0686 2.41258 18.2542 2.227 18.3934 2.04142C19.4141 1.0671 20.6668 0.371167 22.0586 0.139188C22.2442 0.0927917 22.3834 0.0927917 22.569 0.0463958H22.6154C22.8938 0.0463958 23.1721 0 23.4505 0C24.6104 0 25.7239 0.324771 26.7446 0.881521C27.3014 1.20629 27.8117 1.57746 28.2757 2.08781C28.3221 2.1806 28.4149 2.1806 28.5077 2.1806C29.9459 1.85583 31.3378 1.34548 32.6369 0.603146C32.7761 0.603146 32.8225 0.55675 32.8689 0.55675Z" fill="white"/>
<path d="M29.9459 4.31483C29.8995 4.31483 29.8995 4.31483 29.8531 4.31483C29.8995 4.26843 29.8995 4.26843 29.9459 4.26843C29.9459 4.31483 29.9459 4.31483 29.9459 4.31483Z" fill="white"/>
<path d="M6.74802 16.5633C6.79441 16.5633 6.79441 16.5633 6.84081 16.5633C6.84081 16.6097 6.79441 16.6097 6.74802 16.6097V16.5633Z" fill="white"/>
<path d="M22.7546 0.0463936H22.7082C22.7082 -2.27844e-06 22.7082 -2.27844e-06 22.7546 0.0463936Z" fill="white"/>
<path d="M1.4125 4.26843V4.31483C1.3661 4.31483 1.3661 4.26843 1.4125 4.26843Z" fill="white"/>
<path d="M1.4125 5.24274V5.28913C1.3661 5.24274 1.3661 5.24274 1.4125 5.24274Z" fill="white"/>
<path d="M15.9344 8.49045H15.888C15.888 8.44406 15.888 8.44406 15.9344 8.49045Z" fill="white"/>
<path d="M30.3171 9.27918V9.23279C30.3635 9.27918 30.3635 9.27918 30.3171 9.27918Z" fill="white"/>
<path d="M3.77869 24.3114C3.77869 24.3578 3.73229 24.3578 3.6859 24.3578C3.73229 24.3114 3.77869 24.3114 3.77869 24.3114Z" fill="white"/>
<path d="M0.0211327 24.4042C0.0211327 24.4518 -0.0264159 24.4518 0.0211327 24.4042Z" fill="white"/>
<path d="M10.1349 21.5277H10.1813C10.2277 21.5277 10.1813 21.5277 10.1813 21.5741C10.1813 21.5277 10.1349 21.5277 10.1349 21.5277Z" fill="white"/>
</svg>
